# xmcd
#
# Track frame offsets:
#	150
#	12465
#	26052
#	39929
#	52934
#	69164
#	82438
#	97305
#	111594
#	126179
#	143002
#	156119
#
# Disc length: 2284 seconds
#
# Revision: 0
# Processed by: cddbd v1.5.2PL0 Copyright (c) Steve Scherf et al.
# Submitted via: dBpowerAMP V4.0
#
DISCID=a608ea0c
DTITLE=La leyenda - conquistandote
DYEAR=1900
DGENRE=
TTITLE0=te voy a cambiar
TTITLE1=quiero saber
TTITLE2=te me vas
TTITLE3=demente
TTITLE4=tus ojos castaños
TTITLE5=regrese a rogarte
TTITLE6=conquistandote
TTITLE7=atascate que hay lodo
TTITLE8=lo siento
TTITLE9=si supieras
TTITLE10=te va a decir adios
TTITLE11=ay amor
EXTD=
EXTT0=
EXTT1=
EXTT2=
EXTT3=
EXTT4=
EXTT5=
EXTT6=
EXTT7=
EXTT8=
EXTT9=
EXTT10=
EXTT11=
PLAYORDER=
